{
  "accessors": [
    {
      "bufferView": 2,
      "componentType": 5126,
      "count": 3487,
      "max": [
        8.953714370727539,
        -11.272139549255371,
        9.138986587524414
      ],
      "min": [
        -9.358940124511719,
        -12.489320755004883,
        -9.276880264282227
      ],
      "type": "VEC3"
    },
    {
      "bufferView": 2,
      "byteOffset": 41844,
      "componentType": 5126,
      "count": 3487,
      "max": [
        0.9999593496322632,
        0.9999998807907104,
        0.9963728785514832
      ],
      "min": [
        -0.9997958540916443,
        -0.9999962449073792,
        -0.9879502654075623
      ],
      "type": "VEC3"
    },
    {
      "bufferView": 3,
      "componentType": 5126,
      "count": 3487,
      "max": [
        1.0,
        0.9891355037689209,
        1.0,
        1.0
      ],
      "min": [
        -1.0,
        -0.9999977350234985,
        -1.0,
        -1.0
      ],
      "type": "VEC4"
    },
    {
      "bufferView": 1,
      "componentType": 5126,
      "count": 3487,
      "max": [
        0.9900000095367432,
        0.9900000095367432
      ],
      "min": [
        0.009999999776482582,
        0.045492999255657196
      ],
      "type": "VEC2"
    },
    {
      "bufferView": 0,
      "componentType": 5125,
      "count": 17046,
      "type": "SCALAR"
    },
    {
      "bufferView": 2,
      "byteOffset": 83688,
      "componentType": 5126,
      "count": 6137,
      "max": [
        8.849470138549805,
        -0.025753000751137733,
        11.910880088806152
      ],
      "min": [
        -8.887365341186523,
        -10.301824569702148,
        -11.932774543762207
      ],
      "type": "VEC3"
    },
    {
      "bufferView": 2,
      "byteOffset": 157332,
      "componentType": 5126,
      "count": 6137,
      "max": [
        0.9999562501907349,
        1.0,
        0.9999503493309021
      ],
      "min": [
        -0.9999536275863647,
        -1.0,
        -0.9999750256538391
      ],
      "type": "VEC3"
    },
    {
      "bufferView": 3,
      "byteOffset": 55792,
      "componentType": 5126,
      "count": 6137,
      "max": [
        1.0,
        1.0,
        1.0,
        1.0
      ],
      "min": [
        -1.0,
        -0.9999999403953552,
        -1.0,
        -1.0
      ],
      "type": "VEC4"
    },
    {
      "bufferView": 1,
      "byteOffset": 27896,
      "componentType": 5126,
      "count": 6137,
      "max": [
        0.9840850234031677,
        0.9900000095367432
      ],
      "min": [
        0.009999999776482582,
        0.07309900224208832
      ],
      "type": "VEC2"
    },
    {
      "bufferView": 0,
      "byteOffset": 68184,
      "componentType": 5125,
      "count": 29892,
      "type": "SCALAR"
    }
  ],
  "asset": {
    "extras": {
      "author": "Makovetkyi Volodymyr (https://sketchfab.com/pbr-scans)",
      "license": "CC-BY-4.0 (http://creativecommons.org/licenses/by/4.0/)",
      "source": "https://sketchfab.com/3d-models/pb123-saucepan-low-e9bb779c489140518c4a9882636d1c8f",
      "title": "PB123 Saucepan Low"
    },
    "generator": "Sketchfab-12.67.0",
    "version": "2.0"
  },
  "bufferViews": [
    {
      "buffer": 0,
      "byteLength": 187752,
      "name": "floatBufferViews",
      "target": 34963
    },
    {
      "buffer": 0,
      "byteLength": 76992,
      "byteOffset": 187752,
      "byteStride": 8,
      "name": "floatBufferViews",
      "target": 34962
    },
    {
      "buffer": 0,
      "byteLength": 230976,
      "byteOffset": 264744,
      "byteStride": 12,
      "name": "floatBufferViews",
      "target": 34962
    },
    {
      "buffer": 0,
      "byteLength": 153984,
      "byteOffset": 495720,
      "byteStride": 16,
      "name": "floatBufferViews",
      "target": 34962
    }
  ],
  "buffers": [
    {
      "byteLength": 649704,
      "uri": "scene.bin"
    }
  ],
  "images": [
    {
      "uri": "textures/lambert2SG1_baseColor.jpeg"
    },
    {
      "uri": "textures/lambert2SG1_metallicRoughness.png"
    },
    {
      "uri": "textures/lambert2SG1_normal.png"
    }
  ],
  "materials": [
    {
      "doubleSided": true,
      "name": "lambert2SG1",
      "normalTexture": {
        "index": 2,
        "scale": 0.07439394864169034
      },
      "pbrMetallicRoughness": {
        "baseColorTexture": {
          "index": 0
        },
        "metallicRoughnessTexture": {
          "index": 1
        }
      }
    }
  ],
  "meshes": [
    {
      "name": "Object_0",
      "primitives": [
        {
          "attributes": {
            "NORMAL": 1,
            "POSITION": 0,
            "TANGENT": 2,
            "TEXCOORD_0": 3
          },
          "indices": 4,
          "material": 0,
          "mode": 4
        }
      ]
    },
    {
      "name": "Object_1",
      "primitives": [
        {
          "attributes": {
            "NORMAL": 6,
            "POSITION": 5,
            "TANGENT": 7,
            "TEXCOORD_0": 8
          },
          "indices": 9,
          "material": 0,
          "mode": 4
        }
      ]
    }
  ],
  "nodes": [
    {
      "children": [
        1
      ],
      "matrix": [
        0.0,
        -2.220446049250313e-16,
        1.0,
        0.0,
        0.0,
        -1.0,
        -2.220446049250313e-16,
        0.0,
        1.0,
        0.0,
        0.0,
        0.0,
        -0.19164180755615234,
        -6.268487930297853,
        6.460129737854002,
        1.0
      ],
      "name": "Sketchfab_model"
    },
    {
      "children": [
        2,
        3
      ],
      "name": "PB123_saucepan_low.obj.cleaner.materialmerger.gles"
    },
    {
      "mesh": 0,
      "name": "Object_2"
    },
    {
      "mesh": 1,
      "name": "Object_3"
    }
  ],
  "samplers": [
    {
      "magFilter": 9729,
      "minFilter": 9987,
      "wrapS": 10497,
      "wrapT": 10497
    }
  ],
  "scene": 0,
  "scenes": [
    {
      "name": "Sketchfab_Scene",
      "nodes": [
        0
      ]
    }
  ],
  "textures": [
    {
      "sampler": 0,
      "source": 0
    },
    {
      "sampler": 0,
      "source": 1
    },
    {
      "sampler": 0,
      "source": 2
    }
  ]
}
